# xmcd
#
# Track frame offsets:
#	150
#	14104
#	27039
#	40965
#	58835
#	68935
#	82311
#	97208
#	106733
#	119427
#	133352
#	144506
#	157457
#	180696
#	197176
#	209949
#	221708
#	242633
#	270294
#
# Disc length: 4440 seconds
#
# Revision: 5
# Processed by: cddbd v1.5.1PL2 Copyright (c) Steve Scherf et al.
# Submitted via: EasyCDDAExtractor 9.0.0.1
#
DISCID=39115613
DTITLE=Various Artist - Lady Sings The Blues 2 - CD One
DYEAR=2003
DGENRE=Blues
TTITLE0=Aretha Franklin - All Night Long
TTITLE1=Peggy Lee - As Time Goes By
TTITLE2=Nina Simone - I Wish I Knew
TTITLE3=Sara Vaughan - Lover Man
TTITLE4=Julie London - Go Slow
TTITLE5=Nancy Wilson - The Nearness Of You
TTITLE6=Billie Holiday - Georgia On My Mind
TTITLE7=Dinah Washington - Baby Wont You Please Come Home
TTITLE8=Dusty Springfield - You Dont Have To Say You Love Me
TTITLE9=P P Arnold - The First Cut Is The Deepest
TTITLE10=Ann Peebles - I Cant Stand The Rain
TTITLE11=Irma Thomas - Time Is On My Side
TTITLE12=Esther Phillips - How Blue Can You Get
TTITLE13=Lou Rawls and Dianne Reeves - At Last
TTITLE14=Julie London - In The Wee Small Hours Of The Morning
TTITLE15=Ella Fitzgerald and The Delta Rhythm Boys - Paper Moon ( Its Only A )
TTITLE16=Eva Cassidy ( Duet With Chuck Brown ) - I Need Your Love So Bad
TTITLE17=Joss Stone - The Chokin' Kind
TTITLE18=DATA -  
EXTD=
EXTT0=
EXTT1=
EXTT2=
EXTT3=
EXTT4=
EXTT5=
EXTT6=
EXTT7=
EXTT8=
EXTT9=
EXTT10=
EXTT11=
EXTT12=
EXTT13=
EXTT14=
EXTT15=
EXTT16=
EXTT17=
EXTT18=
PLAYORDER=
